# xmcd CD database file
#
# Track frame offsets:
#	150
#	15840
#	29384
#	46151
#	67931
#	76538
#	88529
#	104036
#	117732
#	137527
#	152019
#	164702
#
# Disc length: 2584 seconds
#
# Revision: 3
# Processed by: cddbd v1.5.1PL0 Copyright (c) Steve Scherf et al.
# Submitted via: CDex 1.51
#
DISCID=8d0a160c
DTITLE=Various Artist - A Family Christmas
DYEAR=1900
DGENRE=Christmas
TTITLE0=Tony Orlando - Away In A Manger
TTITLE1=Instrumental Saxaphone - It Came Upon A Midnight Clear
TTITLE2=Stella Parton - Deck The Halls
TTITLE3=Eddie Rabbitt - Silent Night
TTITLE4=Hammer Dulcimer - Carol Of The Bells
TTITLE5=Jennifer Wilson - Jingle Bells
TTITLE6=Mickey Gilley - God Rest Ye Merry Gentlemen
TTITLE7=Appalachian Instrumental - Good King Wenceslas
TTITLE8=Jennifer Wilson - O Holy Night
TTITLE9=Eddie Rabbitt - We Wish You  Merry Christmas
TTITLE10=Boxcar Willie - Joy To The World
TTITLE11=Appalachian Instrumental - Oh Christmas Tree
EXTD=
EXTT0=
EXTT1=
EXTT2=
EXTT3=
EXTT4=
EXTT5=
EXTT6=
EXTT7=
EXTT8=
EXTT9=
EXTT10=
EXTT11=
PLAYORDER=
